<svg xmlns="http://www.w3.org/2000/svg" viewBox="38 327 861 171" role="img" aria-labelledby="title desc"><defs><filter id="letter-shadow" x="-30%" y="-30%" width="160%" height="180%" color-interpolation-filters="sRGB"><feDropShadow dx="0" dy="4" stdDeviation="2.4" flood-color="#000000" flood-opacity="0.65"/></filter></defs><title id="title">Tools4Devs</title><desc id="desc">Rounded gray Tools and Devs with a blue four overlapping the uppercase D. Vector paths based on the supplied reference.</desc><g fill="none" stroke-width="15" stroke-linecap="round" stroke-linejoin="round"><g stroke="#d4d4d4"><path filter="url(#letter-shadow)" d="M54 349H148M101 349V461M362 348V446Q362 461 380 461H387"/><ellipse filter="url(#letter-shadow)" cx="191" cy="423" rx="35" ry="38"/><ellipse filter="url(#letter-shadow)" cx="291" cy="423" rx="35" ry="38"/><path filter="url(#letter-shadow)" d="M513 363H546C586 363 603 384 603 418S584 474 546 474H513V363M700 468C687 475 675 478 663 474C646 470 637 457 637 439C637 417 649 400 668 400C688 400 701 413 701 436H638M727 401 761 474 796 401M876 407C857 396 829 397 824 414C815 444 879 431 876 457C873 480 843 481 821 469"/></g><path filter="url(#letter-shadow)" d="M506 359 445 449H527M506 359V476" stroke="#60a5ed"/><path filter="url(#letter-shadow)" d="M463 391C449 383 426 383 416 393C404 406 415 419 437 425C454 429 465 435 463 447C460 463 431 466 408 455" stroke="#d4d4d4"/></g></svg>